# xmcd CD database file
#
# Track frame offsets:
#	150
#	18775
#	51165
#	92747
#	117737
#	144750
#	167845
#
# Disc length: 2540 seconds
#
# Revision: 0
# Processed by: cddbd v1.5.1PL0 Copyright (c) Steve Scherf et al.
# Submitted via: CDex 1.51
#
DISCID=5509ea07
DTITLE=Freddie Hubbard, Curtis Fuller and Yusef Lateef - Gettin' It Together
DYEAR=1999
DGENRE=Jazz
TTITLE0=Chantized
TTITLE1=Flutie
TTITLE2=If I Were A Bell
TTITLE3=But Beautiful
TTITLE4=Do I Love You
TTITLE5=The Court
TTITLE6=Mr. L
EXTD=YEAR: 1999
EXTT0=
EXTT1=
EXTT2=
EXTT3=
EXTT4=
EXTT5=
EXTT6=
PLAYORDER=
